<svg width="25" height="25" viewBox="0 0 25 25" fill="none" xmlns="http://www.w3.org/2000/svg">
<path d="M22.9167 2.08331H2.08334C1.80707 2.08331 1.54212 2.19306 1.34677 2.38841C1.15142 2.58376 1.04167 2.84871 1.04167 3.12498V11.4583C1.04167 11.7346 1.15142 11.9995 1.34677 12.1949C1.54212 12.3902 1.80707 12.5 2.08334 12.5H5.20834V21.875C5.20834 22.1512 5.31809 22.4162 5.51344 22.6116C5.70879 22.8069 5.97374 22.9166 6.25 22.9166H18.75C19.0263 22.9166 19.2912 22.8069 19.4866 22.6116C19.6819 22.4162 19.7917 22.1512 19.7917 21.875V12.5H22.9167C23.1929 12.5 23.4579 12.3902 23.6532 12.1949C23.8486 11.9995 23.9583 11.7346 23.9583 11.4583V3.12498C23.9583 2.84871 23.8486 2.58376 23.6532 2.38841C23.4579 2.19306 23.1929 2.08331 22.9167 2.08331ZM7.29167 20.8333V18.75C7.84421 18.75 8.37411 18.9695 8.76481 19.3602C9.15551 19.7509 9.375 20.2808 9.375 20.8333H7.29167ZM17.7083 20.8333H15.625C15.625 20.2808 15.8445 19.7509 16.2352 19.3602C16.6259 18.9695 17.1558 18.75 17.7083 18.75V20.8333ZM17.7083 16.6666C16.6033 16.6666 15.5435 17.1056 14.7621 17.887C13.9807 18.6684 13.5417 19.7282 13.5417 20.8333H11.4583C11.4583 19.7282 11.0194 18.6684 10.2379 17.887C9.45655 17.1056 8.39674 16.6666 7.29167 16.6666V8.33331H17.7083V16.6666ZM21.875 10.4166H19.7917V7.29165C19.7917 7.01538 19.6819 6.75043 19.4866 6.55508C19.2912 6.35973 19.0263 6.24998 18.75 6.24998H6.25C5.97374 6.24998 5.70879 6.35973 5.51344 6.55508C5.31809 6.75043 5.20834 7.01538 5.20834 7.29165V10.4166H3.12501V4.16665H21.875V10.4166ZM12.5 15.625C13.1181 15.625 13.7223 15.4417 14.2362 15.0983C14.7501 14.7549 15.1506 14.2669 15.3871 13.6959C15.6237 13.1248 15.6855 12.4965 15.565 11.8903C15.4444 11.2841 15.1468 10.7273 14.7097 10.2903C14.2727 9.85323 13.7159 9.5556 13.1097 9.43503C12.5035 9.31445 11.8751 9.37633 11.3041 9.61286C10.7331 9.84938 10.245 10.2499 9.90166 10.7638C9.55828 11.2777 9.375 11.8819 9.375 12.5C9.375 13.3288 9.70424 14.1236 10.2903 14.7097C10.8763 15.2957 11.6712 15.625 12.5 15.625ZM12.5 11.4583C12.706 11.4583 12.9074 11.5194 13.0787 11.6339C13.25 11.7483 13.3835 11.911 13.4624 12.1014C13.5412 12.2917 13.5618 12.5011 13.5217 12.7032C13.4815 12.9053 13.3823 13.0909 13.2366 13.2365C13.0909 13.3822 12.9053 13.4814 12.7032 13.5216C12.5012 13.5618 12.2917 13.5412 12.1014 13.4624C11.911 13.3835 11.7484 13.25 11.6339 13.0787C11.5194 12.9074 11.4583 12.706 11.4583 12.5C11.4583 12.2237 11.5681 11.9588 11.7634 11.7634C11.9588 11.5681 12.2237 11.4583 12.5 11.4583Z" fill="black"/>
</svg>
